<?xml version="1.0" encoding="UTF-8"?>
<svg xmlns="http://www.w3.org/2000/svg" xmlns:xlink="http://www.w3.org/1999/xlink" xmlns:svgjs="http://svgjs.com/svgjs" version="1.1" width="512" height="512" x="0" y="0" viewBox="0 0 503.14371 503" style="enable-background:new 0 0 512 512" xml:space="preserve" class="">
  <g>
    <path xmlns="http://www.w3.org/2000/svg" d="m492.808594 235.703125c-29.636719 35.988281-62.691406 69.019531-98.707032 98.625-2.570312 2.109375-6.105468 2.59375-9.148437 1.257813-3.859375-1.679688-7.636719-3.441407-11.332031-5.203126-7.804688-3.777343-15.441406-7.636718-22.828125-11.667968-70.828125-37.492188-128.734375-95.425782-166.191407-166.273438-6.042968-10.996094-11.695312-22.410156-16.953124-34.246094-1.332032-3.015624-.84375-6.523437 1.257812-9.0625 28.238281-34.4375 59.65625-66.136718 93.839844-94.679687l4.78125-4.027344c2.589844-2.082031 6.121094-2.535156 9.152344-1.175781 11.832031 5.285156 23.164062 10.910156 34.160156 16.871094 70.851562 37.488281 128.785156 95.421875 166.273437 166.273437 5.960938 10.910157 11.582031 22.296875 16.871094 34.160157 1.359375 3.027343.90625 6.5625-1.175781 9.148437zm0 0" fill="#b1880c" data-original="#707070" style="" class=""/>
    <path xmlns="http://www.w3.org/2000/svg" d="m467.628906 235.703125c-28.320312 34.417969-59.792968 66.117187-94.007812 94.679687-7.804688-3.777343-15.441406-7.636718-22.828125-11.667968-70.828125-37.492188-128.734375-95.425782-166.191407-166.273438-6.042968-10.996094-11.695312-22.410156-16.953124-34.246094-1.332032-3.015624-.84375-6.523437 1.257812-9.0625 28.238281-34.4375 59.65625-66.136718 93.839844-94.679687 7.804687 3.691406 15.441406 7.636719 22.914062 11.667969 70.851563 37.488281 128.785156 95.421875 166.273438 166.273437 5.957031 10.910157 11.582031 22.296875 16.871094 34.160157 1.359374 3.027343.902343 6.5625-1.175782 9.148437zm0 0" fill="#dbb43e" data-original="#9e9e9e" style="" class=""/>
    <path xmlns="http://www.w3.org/2000/svg" d="m449.332031 96.707031c.011719 11.375-4.519531 22.285157-12.589843 30.300781l-1.679688 1.679688-147.304688 148.394531-47.84375 52.878907-11.246093 12.425781-11.75 13.007812-11.25 12.339844-97.949219 108.273437c-10.46875 11.589844-25.234375 18.375-40.847656 18.769532-15.609375.398437-30.699219-5.628906-41.746094-16.671875-2.8125-2.828125-5.316406-5.953125-7.46875-9.316407-14.691406-22.511718-11.609375-52.238281 7.386719-71.257812.671875-.671875 1.425781-1.429688 2.097656-2.015625l12.925781-11.75 12.421875-11.25 13.011719-11.75 12.421875-11.246094 148.144531-134.042969 148.480469-147.304687 1.675781-1.761719c13.476563-13.511718 34.285156-16.425781 50.949219-7.136718 3.523437 1.894531 6.75 4.296874 9.570313 7.136718 8.070312 8.015625 12.601562 18.921875 12.589843 30.296875zm0 0" fill="#e5d025" data-original="#6d4122" style="" class=""/>
    <path xmlns="http://www.w3.org/2000/svg" d="m432.542969 79.921875c.015625 11.375-4.519531 22.285156-12.589844 30.300781l-1.675781 1.679688-147.308594 148.394531-47.839844 52.878906-11.25 12.421875-11.75 13.011719-11.246094 12.335937-97.953124 108.277344c-18.742188 20.78125-49.820313 24.839844-73.273438 9.566406-14.691406-22.511718-11.609375-52.238281 7.386719-71.257812.671875-.671875 1.425781-1.429688 2.097656-2.015625l12.925781-11.75 12.421875-11.25 13.011719-11.75 12.421875-11.246094 148.144531-134.042969 148.480469-147.304687 1.675781-1.761719c13.476563-13.511718 34.285156-16.425781 50.949219-7.136718 3.542969 6.304687 5.394531 13.417968 5.371094 20.648437zm0 0" fill="#d9b115" data-original="#91562d" style="" class=""/>
    <path xmlns="http://www.w3.org/2000/svg" d="m477.113281 192.394531c-39.898437 44.234375-82.0625 86.367188-126.320312 126.238281v.082032c-70.828125-37.492188-128.734375-95.425782-166.191407-166.273438 39.867188-44.261718 82.003907-86.425781 126.238282-126.320312 70.851562 37.488281 128.785156 95.421875 166.273437 166.273437zm0 0" fill="#f5e038" data-original="#607d8b" style="" class=""/>
    <path xmlns="http://www.w3.org/2000/svg" d="m388.539062 344.695312c-2.40625.003907-4.789062-.503906-6.988281-1.484374-99.8125-42.277344-179.265625-121.730469-221.542969-221.542969-2.636718-5.941407-1.710937-12.859375 2.390626-17.898438 29.960937-36.429687 63.390624-69.859375 99.816406-99.820312 5.039062-4.109375 11.964844-5.03125 17.90625-2.386719 99.8125 42.273438 179.265625 121.726562 221.539062 221.539062 2.636719 5.941407 1.710938 12.859376-2.390625 17.902344-29.960937 36.425782-63.390625 69.859375-99.820312 99.816406-3.078125 2.515626-6.933594 3.882813-10.910157 3.875zm-.125-16.804687c.121094.046875.261719.035156.371094-.035156 35.589844-29.269531 68.25-61.929688 97.515625-97.515625-40.503906-96.1875-116.945312-172.773438-213.054687-213.460938-35.785156 29.191406-68.570313 61.871094-97.882813 97.554688 40.507813 96.183594 116.945313 172.769531 213.054688 213.457031zm0 0" fill="#000000" data-original="#000000" style="" class=""/>
    <path xmlns="http://www.w3.org/2000/svg" d="m184.570312 160.800781c-3.316406 0-6.316406-1.953125-7.664062-4.980469-1.347656-3.03125-.785156-6.566406 1.433594-9.03125 40.085937-44.457031 82.441406-86.8125 126.898437-126.898437 3.449219-3.015625 8.6875-2.703125 11.757813.703125 3.070312 3.40625 2.835937 8.644531-.519532 11.765625-44.027343 39.699219-85.972656 81.640625-125.671874 125.667969-1.585938 1.769531-3.855469 2.777344-6.234376 2.773437zm0 0" fill="#000000" data-original="#000000" style="" class=""/>
    <path xmlns="http://www.w3.org/2000/svg" d="m350.816406 327.039062c-3.476562.003907-6.59375-2.136718-7.839844-5.378906-1.246093-3.246094-.367187-6.921875 2.214844-9.246094 44.023438-39.699218 85.96875-81.644531 125.667969-125.667968 3.128906-3.328125 8.34375-3.539063 11.734375-.484375 3.390625 3.058593 3.714844 8.265625.730469 11.722656-40.085938 44.453125-82.441407 86.808594-126.894531 126.894531-1.539063 1.394532-3.539063 2.164063-5.613282 2.160156zm0 0" fill="#000000" data-original="#000000" style="" class=""/>
    <path xmlns="http://www.w3.org/2000/svg" d="m65.363281 503.195312c-26.433593-.015624-50.257812-15.941406-60.378906-40.363281-10.121094-24.417969-4.542969-52.53125 14.132813-71.238281.839843-.839844 1.769531-1.753906 2.691406-2.519531l198.660156-179.804688c3.453125-2.984375 8.652344-2.664062 11.714844.714844 3.0625 3.382813 2.859375 8.589844-.449219 11.726563l-198.933594 180.042968c-.796875.675782-1.328125 1.21875-1.8125 1.707032-18.953125 18.992187-18.925781 49.75.058594 68.710937 9.414063 9.410156 22.277344 14.550781 35.585937 14.21875 13.304688-.328125 25.894532-6.105469 34.828126-15.972656l180.046874-198.933594c3.136719-3.308594 8.34375-3.507813 11.726563-.449219 3.382813 3.0625 3.699219 8.261719.714844 11.714844l-180.039063 198.929688c-11.972656 13.335937-28.9375 21.117187-46.855468 21.496093-.5625.015625-1.128907.019531-1.691407.019531zm0 0" fill="#000000" data-original="#000000" style="" class=""/>
    <path xmlns="http://www.w3.org/2000/svg" d="m435.082031 137.070312c-3.394531-.003906-6.457031-2.046874-7.753906-5.183593-1.300781-3.136719-.582031-6.746094 1.820313-9.144531l1.691406-1.695313c8.695312-8.691406 12.089844-21.363281 8.910156-33.242187-3.183594-11.875-12.460938-21.152344-24.335938-24.335938s-24.546874.210938-33.242187 8.90625l-1.695313 1.699219c-2.113281 2.164062-5.226562 3.027343-8.148437 2.253906-2.925781-.769531-5.210937-3.050781-5.980469-5.976563-.769531-2.925781.09375-6.039062 2.257813-8.148437l1.699219-1.695313c12.917968-13.011718 31.808593-18.117187 49.523437-13.394531 17.714844 4.726563 31.550781 18.5625 36.273437 36.28125 4.726563 17.714844-.382812 36.601563-13.394531 49.523438l-1.691406 1.691406c-1.570313 1.578125-3.707031 2.460937-5.933594 2.460937zm0 0" fill="#000000" data-original="#000000" style="" class=""/>
    <path xmlns="http://www.w3.org/2000/svg" d="m234.273438 344.535156c-2.226563.003906-4.363282-.882812-5.933594-2.457031l-27.546875-27.546875c-3.179688-3.292969-3.132813-8.527344.105469-11.765625 3.234374-3.238281 8.472656-3.285156 11.765624-.101563l27.542969 27.542969c2.402344 2.402344 3.121094 6.011719 1.820313 9.148438-1.300782 3.132812-4.359375 5.179687-7.753906 5.179687zm0 0" fill="#000000" data-original="#000000" style="" class=""/>
    <path xmlns="http://www.w3.org/2000/svg" d="m211.269531 369.960938c-2.226562.003906-4.363281-.882813-5.933593-2.457032l-28.757813-28.753906c-3.207031-3.289062-3.175781-8.546875.074219-11.796875 3.246094-3.246094 8.503906-3.28125 11.792968-.074219l28.757813 28.753906c2.402344 2.402344 3.117187 6.011719 1.820313 9.148438-1.300782 3.132812-4.359376 5.179688-7.753907 5.179688zm0 0" fill="#000000" data-original="#000000" style="" class=""/>
    <path xmlns="http://www.w3.org/2000/svg" d="m91.703125 383.585938c-2.226563 0-4.359375-.882813-5.933594-2.460938l-19.976562-19.976562c-2.179688-2.105469-3.054688-5.226563-2.289063-8.160157.769532-2.9375 3.0625-5.226562 5.996094-5.996093 2.933594-.769532 6.054688.105468 8.160156 2.289062l19.976563 19.976562c2.402343 2.398438 3.121093 6.011719 1.820312 9.144532-1.296875 3.136718-4.359375 5.183594-7.753906 5.183594zm0 0" fill="#000000" data-original="#000000" style="" class=""/>
    <path xmlns="http://www.w3.org/2000/svg" d="m67.492188 407.796875c-2.230469.003906-4.367188-.882813-5.9375-2.460937l-21.1875-21.183594c-3.207032-3.292969-3.171876-8.546875.074218-11.796875 3.25-3.246094 8.507813-3.28125 11.796875-.074219l21.1875 21.1875c2.402344 2.402344 3.117188 6.011719 1.820313 9.148438-1.300782 3.136718-4.359375 5.179687-7.753906 5.179687zm0 0" fill="#000000" data-original="#000000" style="" class=""/>
  </g>
</svg>
